<svg xmlns="http://www.w3.org/2000/svg" width="30" height="30" viewBox="0 0 30 30">
  <path id="Icon_awesome-store" data-name="Icon awesome-store" d="M29.323,6.949,26.162.879A1.52,1.52,0,0,0,24.842,0H5.164a1.52,1.52,0,0,0-1.32.879L.683,6.949C-.949,10.084.5,14.443,3.547,14.941a4.222,4.222,0,0,0,.667.053,4.506,4.506,0,0,0,3.595-1.939A4.513,4.513,0,0,0,11.4,14.994,4.506,4.506,0,0,0,15,13.055a4.513,4.513,0,0,0,3.595,1.939,4.506,4.506,0,0,0,3.595-1.939,4.52,4.52,0,0,0,3.595,1.939,4.176,4.176,0,0,0,.667-.053C29.508,14.449,30.959,10.09,29.323,6.949Zm-3.531,9.926a5.2,5.2,0,0,1-1.437-.223V22.5H5.651V16.652a5.43,5.43,0,0,1-1.437.223,5.482,5.482,0,0,1-.877-.07,5.252,5.252,0,0,1-.8-.211V28.125A1.737,1.737,0,0,0,4.1,30H25.918a1.737,1.737,0,0,0,1.559-1.875V16.594a4.265,4.265,0,0,1-.8.211A5.65,5.65,0,0,1,25.792,16.875Z" transform="translate(-0.004)" fill="#d6d6d6"/>
</svg>
