<svg xmlns="http://www.w3.org/2000/svg" width="30" height="29.752" viewBox="0 0 30 29.752">
  <path id="Icon_awesome-shopping-cart" data-name="Icon awesome-shopping-cart" d="M27.506,17.509,29.968,5.423a1.364,1.364,0,0,0-1.219-1.7H8.292l-.477-2.6A1.292,1.292,0,0,0,6.59,0H1.25A1.328,1.328,0,0,0,0,1.395v.93A1.328,1.328,0,0,0,1.25,3.719H4.89L8.548,23.676A3.334,3.334,0,0,0,7.083,26.5,3.1,3.1,0,0,0,10,29.752,3.1,3.1,0,0,0,12.917,26.5a3.437,3.437,0,0,0-.876-2.324H22.96a3.438,3.438,0,0,0-.876,2.324A3.1,3.1,0,0,0,25,29.752,3.1,3.1,0,0,0,27.917,26.5a3.3,3.3,0,0,0-1.645-2.929l.287-1.411a1.364,1.364,0,0,0-1.219-1.7H11.36l-.341-1.86H26.287A1.288,1.288,0,0,0,27.506,17.509Z" fill="#d6d6d6"/>
</svg>

