<svg xmlns="http://www.w3.org/2000/svg" width="30" height="30" viewBox="0 0 30 30">
  <path id="Icon_awesome-clipboard-list" data-name="Icon awesome-clipboard-list" d="M26.25,3.75H20C20,1.682,17.758,0,15,0s-5,1.682-5,3.75H3.75C1.68,3.75,0,5.01,0,6.563V27.188C0,28.74,1.68,30,3.75,30h22.5C28.32,30,30,28.74,30,27.188V6.563C30,5.01,28.32,3.75,26.25,3.75ZM7.5,24.844c-1.039,0-1.875-.627-1.875-1.406s.836-1.406,1.875-1.406,1.875.627,1.875,1.406S8.539,24.844,7.5,24.844Zm0-5.625c-1.039,0-1.875-.627-1.875-1.406s.836-1.406,1.875-1.406,1.875.627,1.875,1.406S8.539,19.219,7.5,19.219Zm0-5.625c-1.039,0-1.875-.627-1.875-1.406s.836-1.406,1.875-1.406,1.875.627,1.875,1.406S8.539,13.594,7.5,13.594ZM15,2.344c1.039,0,1.875.627,1.875,1.406S16.039,5.156,15,5.156s-1.875-.627-1.875-1.406S13.961,2.344,15,2.344ZM25,23.906c0,.258-.281.469-.625.469H13.125c-.344,0-.625-.211-.625-.469v-.937c0-.258.281-.469.625-.469h11.25c.344,0,.625.211.625.469Zm0-5.625c0,.258-.281.469-.625.469H13.125c-.344,0-.625-.211-.625-.469v-.937c0-.258.281-.469.625-.469h11.25c.344,0,.625.211.625.469Zm0-5.625c0,.258-.281.469-.625.469H13.125c-.344,0-.625-.211-.625-.469v-.937c0-.258.281-.469.625-.469h11.25c.344,0,.625.211.625.469Z" fill="#d6d6d6"/>
</svg>



