<svg xmlns="http://www.w3.org/2000/svg" width="30" height="30" viewBox="0 0 30 30">
  <path id="Icon_awesome-home" data-name="Icon awesome-home" d="M14.6,10.036,5,20.206V31.182a.975.975,0,0,0,.833,1.072l5.836-.019a.977.977,0,0,0,.829-1.072v-6.41a.975.975,0,0,1,.833-1.072h3.333a.975.975,0,0,1,.833,1.072v6.405a1.245,1.245,0,0,0,.243.76.753.753,0,0,0,.59.315l5.834.021A.975.975,0,0,0,25,31.182V20.2L15.4,10.036A.529.529,0,0,0,14.6,10.036Zm15.167,6.912-4.354-4.615V3.057a.731.731,0,0,0-.625-.8H21.873a.731.731,0,0,0-.625.8V7.92L16.585,2.987a2.089,2.089,0,0,0-3.177,0L.226,16.948A.969.969,0,0,0,.142,18.08L1.47,20.156a.6.6,0,0,0,.423.289.537.537,0,0,0,.458-.18L14.6,7.29a.529.529,0,0,1,.8,0L27.649,20.266a.536.536,0,0,0,.88-.107l1.328-2.076A.969.969,0,0,0,30,17.492a.888.888,0,0,0-.228-.543Z" transform="translate(0.001 -2.254)" fill="#d6d6d6"/>
</svg>

