<svg xmlns="http://www.w3.org/2000/svg" width="30" height="30" viewBox="0 0 30 30">
  <path id="Icon_material-people-outline" data-name="Icon material-people-outline" d="M22.636,24.643A11.578,11.578,0,0,0,16.5,26.786a11.4,11.4,0,0,0-6.136-2.143C7.4,24.643,1.5,26.957,1.5,31.607V37.5h30V31.607C31.5,26.957,25.6,24.643,22.636,24.643Zm-5.455,9.643H3.545V31.607c0-1.157,3.491-3.75,6.818-3.75s6.818,2.593,6.818,3.75Zm12.273,0H19.227V31.607a5.211,5.211,0,0,0-.709-2.614,9.008,9.008,0,0,1,4.118-1.136c3.327,0,6.818,2.593,6.818,3.75ZM10.364,22.5c2.632,0,4.773-3.364,4.773-7.5S13,7.5,10.364,7.5,5.591,10.864,5.591,15,7.732,22.5,10.364,22.5Zm0-11.786c1.5,0,2.727,1.929,2.727,4.286s-1.227,4.286-2.727,4.286S7.636,17.357,7.636,15,8.864,10.714,10.364,10.714ZM22.636,22.5c2.632,0,4.773-3.364,4.773-7.5s-2.141-7.5-4.773-7.5-4.773,3.364-4.773,7.5S20,22.5,22.636,22.5Zm0-11.786c1.5,0,2.727,1.929,2.727,4.286s-1.227,4.286-2.727,4.286S19.909,17.357,19.909,15,21.136,10.714,22.636,10.714Z" transform="translate(-1.5 -7.5)" fill="#d6d6d6"/>
</svg>


